<svg width="107" height="33" viewBox="0 0 107 33" fill="none" xmlns="http://www.w3.org/2000/svg">
<path d="M23.768 12.012C23.636 11.836 23.372 11.836 23.152 11.968C23.064 12.012 22.932 12.144 22.844 12.232C22.492 12.496 22.14 12.848 21.788 13.068C20.864 13.64 19.896 14.124 18.884 14.476C18.532 14.608 18.18 14.74 17.828 14.784C16.992 14.96 16.508 14.696 16.332 13.86L16.2 12.936C16.112 12.364 15.848 11.968 15.232 11.924H15.056C14.132 12.188 13.34 12.628 12.548 13.156L10.436 14.74L9.864 15.136C9.776 14.608 9.776 14.608 9.908 14.08L10.348 12.452C10.436 12.232 10.48 12.012 10.48 11.792C10.48 11.044 9.996 10.604 9.292 10.692C8.94 10.692 8.632 10.824 8.324 10.956C7.576 11.22 6.872 11.66 6.256 12.144C5.42 12.804 4.672 13.508 3.836 14.168C3.704 14.3 3.616 14.52 3.352 14.564L3.704 13.728L5.024 11.44C5.288 10.956 5.464 10.472 5.948 10.12C6.168 9.988 6.212 9.636 6.168 9.372C6.124 9.064 5.948 8.888 5.64 8.844C5.332 8.888 5.156 9.064 5.024 9.372L3.836 11.616L2.604 13.728C1.988 14.828 1.504 15.972 1.108 17.16C1.064 17.336 0.976 17.556 0.976 17.732C0.976 17.952 1.064 18.128 1.284 18.216C1.46 18.348 1.636 18.348 1.812 18.216C1.988 18.084 2.12 17.952 2.252 17.776L2.868 16.984C4.144 15.18 5.728 13.684 7.576 12.496C8.016 12.188 8.5 11.968 8.984 11.704C9.16 11.616 9.38 11.572 9.556 11.792C9.644 12.144 9.512 12.452 9.424 12.76C9.292 13.2 9.116 13.64 9.028 14.08C8.94 14.52 8.808 14.96 8.896 15.4C9.028 16.016 9.468 16.28 10.04 16.06C10.304 15.928 10.524 15.796 10.744 15.62L12.24 14.476C13.032 13.904 13.824 13.376 14.704 12.98C14.88 12.892 15.1 12.892 15.276 12.848L15.452 13.288C15.496 13.596 15.54 13.904 15.628 14.212C15.848 15.092 16.508 15.576 17.432 15.576C17.74 15.576 18.048 15.532 18.356 15.488C19.94 15.092 21.392 14.432 22.8 13.596C23.064 13.464 23.284 13.244 23.548 13.024L23.9 12.584C23.988 12.364 23.944 12.188 23.768 12.012ZM37.7349 13.244C37.6469 13.024 37.4709 12.892 37.2509 12.892C36.8989 12.98 36.7669 13.244 36.5469 13.42C34.8749 15.268 33.2029 16.148 30.7829 16.896C30.4749 16.984 30.1229 16.984 29.7709 16.984C29.3309 16.984 29.1109 16.808 28.9789 16.368C28.8469 16.016 28.8909 15.664 28.9789 15.268C29.2429 13.992 29.6389 12.76 30.2109 11.572C30.2989 11.396 30.3869 11.176 30.4309 10.956C30.5189 10.648 30.3869 10.472 30.0789 10.384C29.7269 10.428 29.5069 10.692 29.2429 10.912C27.3509 12.672 25.4589 14.432 23.6989 16.28L22.4229 17.556C22.1149 17.776 21.8509 18.04 21.4549 18.128C21.2789 17.688 21.3669 17.292 21.4549 16.852C21.7189 15.796 22.2029 14.872 22.7749 13.948C23.7429 12.408 24.9749 11.132 26.5149 10.164C27.0429 9.812 27.5709 9.504 28.2749 9.46L28.5389 9.724L28.9349 9.944C29.0669 9.856 29.2429 9.768 29.3309 9.636C29.4189 9.504 29.4189 9.328 29.4189 9.152C29.3749 8.8 29.1549 8.58 28.7149 8.58C28.3629 8.58 28.0109 8.624 27.7029 8.756C27.1309 8.976 26.5589 9.24 26.0309 9.592C23.9189 10.912 22.3789 12.76 21.2789 15.004C21.0149 15.576 20.7949 16.192 20.6189 16.764C20.5309 17.16 20.4869 17.6 20.4869 18.04C20.5309 18.876 21.1029 19.228 21.8949 18.964C22.1589 18.876 22.4229 18.7 22.6429 18.524C23.1269 18.128 23.6549 17.688 24.0949 17.248L28.4069 13.024C28.5389 12.892 28.6269 12.672 28.8909 12.716L28.8029 13.2C28.7149 13.596 28.5829 13.948 28.4509 14.344C28.2749 14.916 28.1429 15.532 28.1869 16.192C28.2749 17.16 28.8909 17.776 29.8589 17.82C30.1669 17.82 30.5189 17.776 30.8269 17.688C33.5549 17.028 35.6669 15.664 37.6469 13.86C37.8229 13.728 37.8669 13.464 37.7349 13.244ZM28.8909 12.716C28.8909 12.672 28.9349 12.628 28.9349 12.584C29.0229 12.672 28.9789 12.672 28.8909 12.716ZM52.3463 11.616C52.2583 11.176 51.9063 10.868 51.3783 10.868C51.1583 10.868 50.9823 10.868 50.7623 10.912C50.3663 11.044 49.9703 11.132 49.5743 11.308L46.5383 12.672C46.4063 12.716 46.2743 12.892 46.0543 12.76C46.4063 12.144 46.7583 11.528 47.0663 10.912L47.8583 9.196C47.9463 8.976 47.9463 8.668 47.9023 8.448C47.8143 8.272 47.5503 8.096 47.3303 7.876V7.7C47.2423 6.996 46.7583 6.6 46.0983 6.512C45.7903 6.468 45.5263 6.424 45.2623 6.468C44.6903 6.556 44.1623 6.776 43.6343 6.996C42.7543 7.436 41.9183 8.008 41.1263 8.624C38.9703 10.384 37.1663 12.54 35.6703 14.916C35.4503 15.312 35.2303 15.752 35.0543 16.192C34.9223 16.456 34.8343 16.764 34.7903 17.072C34.7023 17.6 34.8783 17.82 35.4503 18.084C36.0223 18.04 36.4183 17.732 36.8143 17.38L40.1583 14.52L45.8343 9.9C46.1863 9.636 46.5383 9.372 47.0663 9.064L46.8903 9.592C46.2743 10.956 45.4823 12.232 44.6903 13.508C44.5583 13.684 44.3823 13.86 44.2063 13.948C43.7663 14.256 43.3263 14.52 42.8863 14.784C39.2783 17.072 35.9783 19.756 33.0743 22.88C31.7983 24.2 30.6983 25.608 29.7303 27.192C29.2463 27.94 28.8503 28.776 28.5423 29.612C28.3663 30.052 28.2343 30.536 28.1903 31.02C28.1023 32.032 28.8503 32.648 29.8183 32.384C30.3463 32.252 30.8303 32.032 31.3143 31.768C32.6783 31.02 33.8663 29.964 34.9663 28.864C36.0223 27.72 36.9463 26.532 37.8703 25.3C40.1583 22.132 42.3143 18.92 44.3383 15.62C44.5583 15.224 44.7783 14.916 45.1743 14.696C46.6263 13.86 48.0783 13.156 49.6183 12.54L50.8943 12.144C51.2023 12.32 51.3343 12.672 51.7303 12.672C52.2583 12.364 52.4343 12.056 52.3463 11.616ZM42.9743 16.324C40.5983 20.02 38.1343 23.628 35.2743 27.016C34.2623 28.248 33.1183 29.348 31.7983 30.228C31.2703 30.58 30.6983 30.844 30.1703 31.152C29.8623 31.328 29.8623 31.284 29.3343 31.284C29.2023 30.976 29.2903 30.668 29.3783 30.36C29.5543 29.92 29.7303 29.48 29.9503 29.04C30.6983 27.456 31.7543 26.048 32.8983 24.684C35.0543 22.176 37.5623 19.976 40.2023 17.996C41.0823 17.336 42.0063 16.72 43.0183 15.972C42.9743 16.192 43.0183 16.28 42.9743 16.324ZM45.5703 9.064C42.2263 11.484 39.2343 14.256 36.0223 16.808C35.9783 16.852 35.9343 16.808 35.8463 16.852L35.9783 16.368C36.1983 15.972 36.3743 15.576 36.5943 15.224C37.9583 13.068 39.5863 11.088 41.5223 9.416C42.2263 8.844 42.9743 8.316 43.7663 7.876C44.2503 7.612 44.7343 7.436 45.2623 7.348C45.6583 7.26 45.9663 7.304 46.2743 7.568C46.1863 8.14 45.6143 8.492 45.5703 9.064ZM66.1802 13.244C66.0922 13.024 65.9162 12.892 65.6962 12.892C65.3442 12.98 65.2122 13.244 64.9922 13.42C63.3202 15.268 61.6482 16.148 59.2282 16.896C58.9202 16.984 58.5682 16.984 58.2162 16.984C57.7762 16.984 57.5562 16.808 57.4242 16.368C57.2922 16.016 57.3362 15.664 57.4242 15.268C57.6882 13.992 58.0842 12.76 58.6562 11.572C58.7442 11.396 58.8322 11.176 58.8762 10.956C58.9642 10.648 58.8322 10.472 58.5242 10.384C58.1722 10.428 57.9522 10.692 57.6882 10.912C55.7962 12.672 53.9042 14.432 52.1442 16.28L50.8682 17.556C50.5602 17.776 50.2962 18.04 49.9002 18.128C49.7242 17.688 49.8122 17.292 49.9002 16.852C50.1642 15.796 50.6482 14.872 51.2202 13.948C52.1882 12.408 53.4202 11.132 54.9602 10.164C55.4882 9.812 56.0162 9.504 56.7202 9.46L56.9842 9.724L57.3802 9.944C57.5122 9.856 57.6882 9.768 57.7762 9.636C57.8642 9.504 57.8642 9.328 57.8642 9.152C57.8202 8.8 57.6002 8.58 57.1602 8.58C56.8082 8.58 56.4562 8.624 56.1482 8.756C55.5762 8.976 55.0042 9.24 54.4762 9.592C52.3642 10.912 50.8242 12.76 49.7242 15.004C49.4602 15.576 49.2402 16.192 49.0642 16.764C48.9762 17.16 48.9322 17.6 48.9322 18.04C48.9762 18.876 49.5482 19.228 50.3402 18.964C50.6042 18.876 50.8682 18.7 51.0882 18.524C51.5722 18.128 52.1002 17.688 52.5402 17.248L56.8522 13.024C56.9842 12.892 57.0722 12.672 57.3362 12.716L57.2482 13.2C57.1602 13.596 57.0282 13.948 56.8962 14.344C56.7202 14.916 56.5882 15.532 56.6322 16.192C56.7202 17.16 57.3362 17.776 58.3042 17.82C58.6122 17.82 58.9642 17.776 59.2722 17.688C62.0002 17.028 64.1122 15.664 66.0922 13.86C66.2682 13.728 66.3122 13.464 66.1802 13.244ZM57.3362 12.716C57.3362 12.672 57.3802 12.628 57.3802 12.584C57.4682 12.672 57.4242 12.672 57.3362 12.716ZM79.8677 12.1C79.7357 11.704 79.4717 11.572 79.0757 11.528H78.5917C77.9757 11.616 77.4037 11.66 76.8317 11.792C75.5117 12.056 74.2357 12.496 73.0037 12.98C72.6517 13.112 72.2997 13.156 71.9477 13.112C71.2437 13.024 70.5837 13.024 69.8797 13.068C69.0877 13.112 68.2957 13.244 67.5477 13.332C67.1077 13.42 66.7117 13.508 66.2717 13.376C66.4477 12.936 66.4477 12.936 66.7557 12.628C68.6477 10.824 70.8477 9.504 73.1797 8.316C73.3117 8.536 73.3557 8.712 73.4437 8.888C73.7517 9.02 74.0157 9.064 74.1917 8.888C74.4557 8.624 74.7197 8.316 74.8957 7.964C75.1157 7.524 74.7637 7.084 74.2797 7.128C74.1037 7.128 73.9277 7.172 73.7957 7.216C73.4437 7.348 73.1357 7.436 72.8277 7.612C71.0237 8.448 69.3077 9.504 67.6797 10.736C67.0637 11.22 66.5357 11.748 65.9637 12.276C65.6997 12.54 65.4797 12.892 65.3037 13.244C65.1277 13.684 65.3477 14.124 65.8317 14.212C66.0517 14.256 66.2717 14.3 66.5357 14.256L68.4717 13.992C69.1757 13.904 69.8797 13.816 70.8477 13.772L69.9237 14.256C68.0757 15.136 66.3157 16.148 64.6437 17.38C63.8517 17.996 63.1037 18.612 62.4877 19.404C62.3117 19.668 62.0917 19.976 61.9597 20.284C61.6957 21.076 62.0477 21.648 62.8837 21.736C63.2357 21.78 63.6317 21.736 63.9837 21.648C64.9517 21.472 65.8317 20.988 66.7117 20.504C68.3397 19.492 69.9677 18.436 71.4637 17.204C71.9917 16.808 72.4317 16.368 72.9157 15.884C73.3997 15.356 73.6637 14.784 73.5317 14.036C73.4877 13.992 73.5317 13.904 73.5757 13.86C74.9837 13.2 77.3157 12.672 78.3277 12.76C78.4597 13.068 78.5917 13.42 79.1197 13.376C79.2517 13.244 79.4717 13.112 79.6477 12.936C79.8677 12.716 79.9997 12.408 79.8677 12.1ZM72.7837 14.696C72.6517 14.96 72.5197 15.224 72.3437 15.4C71.9477 15.84 71.5077 16.28 71.0237 16.632C69.5277 17.776 67.9877 18.744 66.3597 19.712C65.6557 20.108 64.9517 20.416 64.2037 20.636C63.7637 20.768 63.3677 20.856 62.8837 20.724C62.9717 20.504 63.0157 20.328 63.1477 20.196C63.4557 19.8 63.8077 19.404 64.1597 19.052C65.2597 18.084 66.4477 17.292 67.6797 16.544C69.0437 15.752 70.4517 15.092 71.8597 14.476L72.5197 14.212C72.8277 14.344 72.9157 14.52 72.7837 14.696ZM89.1513 13.024C88.8873 12.848 88.5353 12.892 88.2713 13.244C87.8313 13.816 87.6113 13.904 87.0833 14.344C85.8513 15.268 84.5753 16.06 83.2113 16.632C82.5953 16.896 81.9353 17.116 81.2753 17.248C80.7473 17.38 80.1753 17.38 79.6473 17.204C78.8993 16.984 78.5473 16.588 78.5473 15.796C78.5033 15.356 78.5913 14.872 78.6793 14.388C78.8993 13.288 79.3393 12.188 79.8233 11.176C80.2193 10.34 80.4833 9.372 81.2313 8.712C81.2753 8.624 81.3193 8.536 81.3193 8.448C81.4073 8.184 81.2753 7.92 81.0553 7.832C80.8353 7.744 80.5713 7.788 80.4393 7.964C80.2633 8.14 80.1753 8.36 80.0873 8.536C79.6913 9.372 79.2953 10.208 78.9433 11.044C78.5033 12.056 78.0633 13.068 77.7993 14.124C77.6673 14.828 77.5793 15.488 77.6673 16.148C77.7993 17.072 78.2833 17.644 79.1193 17.996C79.6033 18.216 80.1313 18.216 80.8353 18.216C81.1433 18.172 81.6713 18.128 82.1553 17.996C84.7953 17.292 86.7313 16.324 88.7113 14.52C88.8873 14.344 89.0193 14.168 89.1513 13.992C89.4593 13.596 89.4153 13.2 89.1513 13.024ZM82.8593 4.4C83.1233 4.4 83.2993 4.268 83.4313 4.004L83.6953 3.564C84.1793 2.772 84.6193 1.936 85.3673 1.364C85.5433 1.188 85.6313 0.967999 85.6313 0.748C85.5873 0.44 85.4113 0.219998 85.0153 0.175999C84.9273 0.219998 84.7953 0.263999 84.7073 0.351999L82.9473 2.552C82.6833 2.948 82.4193 3.344 82.3313 3.872C82.4193 4.18 82.5513 4.4 82.8593 4.4ZM105.978 11.924C105.846 11.836 105.67 11.836 105.538 11.924C105.362 12.012 105.23 12.188 105.098 12.32C104.658 12.716 104.262 13.112 103.822 13.42C102.502 14.344 101.05 14.916 99.5099 15.224C98.0579 15.488 96.8699 14.828 96.5179 13.288L96.2979 12.364C96.0339 11.44 95.3739 11 94.4499 11.22C93.9219 11.352 93.4379 11.528 92.9979 11.748C91.5899 12.452 90.3139 13.332 89.1259 14.344L88.6419 14.784C88.6419 14.52 88.7739 14.3 88.8619 14.124L90.8419 11.132C91.0619 10.824 91.2379 10.56 91.5899 10.34C91.7219 10.208 91.8099 10.032 91.8979 9.856C91.9859 9.68 92.0299 9.46 91.9419 9.284C91.8099 9.108 91.6779 8.976 91.4579 8.976C91.1059 9.064 90.9299 9.328 90.7979 9.592L90.0059 10.912C89.3459 11.88 88.6859 12.804 88.0699 13.816C87.5859 14.608 87.1459 15.444 86.7059 16.236C86.5739 16.456 86.5299 16.72 86.4859 16.984C86.4419 17.292 86.7499 17.512 87.0579 17.468C87.1899 17.468 87.3659 17.38 87.4979 17.292C87.7179 17.116 87.8939 16.896 88.1139 16.676C89.5219 15.092 91.1499 13.816 92.9979 12.76C93.4379 12.496 93.9219 12.32 94.3619 12.1C94.6699 11.968 94.9779 11.924 95.2859 12.056C95.5499 12.276 95.5939 12.584 95.6819 12.892C95.7699 13.288 95.9019 13.728 96.0339 14.124C96.3859 14.916 97.0459 15.488 97.8819 15.752C98.4539 15.928 99.0699 15.972 99.6419 15.884C101.226 15.62 102.722 15.092 104.13 14.3C104.79 13.948 105.362 13.508 105.846 12.936C105.978 12.804 106.11 12.628 106.198 12.452C106.286 12.276 106.154 12.056 105.978 11.924Z" fill="#CE6D2A"/>
</svg>
